<svg width="103" height="103" viewBox="0 0 103 103" fill="none" xmlns="http://www.w3.org/2000/svg">
<path d="M46.75 18H17C14.7457 18 12.5837 18.8955 10.9896 20.4896C9.39553 22.0837 8.5 24.2457 8.5 26.5V86C8.5 88.2543 9.39553 90.4163 10.9896 92.0104C12.5837 93.6045 14.7457 94.5 17 94.5H76.5C78.7543 94.5 80.9163 93.6045 82.5104 92.0104C84.1045 90.4163 85 88.2543 85 86V56.25" stroke="black" stroke-width="6" stroke-linecap="round" stroke-linejoin="round"/>
<path d="M78.625 11.625C80.3158 9.93423 82.6089 8.98437 85 8.98438C87.3911 8.98438 89.6842 9.93423 91.375 11.625C93.0658 13.3157 94.0156 15.6089 94.0156 18C94.0156 20.3911 93.0658 22.6842 91.375 24.375L51 64.75L34 69L38.25 52L78.625 11.625Z" stroke="black" stroke-width="6" stroke-linecap="round" stroke-linejoin="round"/>
</svg>
