<svg width="103" height="103" viewBox="0 0 103 103" fill="none" xmlns="http://www.w3.org/2000/svg">
<path d="M51.5 12.875C46.4076 18.0032 43.5553 24.9406 43.568 32.1677C43.5806 39.3948 46.4572 46.3222 51.5675 51.4325C56.6778 56.5428 63.6052 59.4194 70.8323 59.432C78.0594 59.4447 84.9968 56.5924 90.125 51.5C90.125 59.1393 87.8597 66.607 83.6155 72.9589C79.3714 79.3107 73.339 84.2614 66.2812 87.1848C59.2234 90.1083 51.4572 90.8732 43.9647 89.3828C36.4721 87.8925 29.5898 84.2138 24.188 78.812C18.7862 73.4102 15.1075 66.5279 13.6172 59.0354C12.1268 51.5428 12.8917 43.7766 15.8152 36.7189C18.7386 29.6611 23.6893 23.6287 30.0411 19.3845C36.393 15.1403 43.8607 12.875 51.5 12.875Z" stroke="black" stroke-width="6" stroke-linecap="round" stroke-linejoin="round"/>
</svg>
