<svg width="103" height="103" viewBox="0 0 103 103" fill="none" xmlns="http://www.w3.org/2000/svg">
<path d="M79.6179 12.0301L60.8633 30.7847L54.0395 23.961C52.4313 22.3623 50.2559 21.465 47.9883 21.465C45.7207 21.465 43.5452 22.3623 41.937 23.961L35.1133 30.7847L73.7383 69.4097L80.562 62.586C82.1607 60.9778 83.058 58.8023 83.058 56.5347C83.058 54.2671 82.1607 52.0917 80.562 50.4835L73.7383 43.6597L92.4929 24.9051C94.2002 23.1978 95.1594 20.8822 95.1594 18.4676C95.1594 16.0531 94.2002 13.7375 92.4929 12.0301C90.7855 10.3228 88.4699 9.36365 86.0554 9.36365C83.6408 9.36365 81.3252 10.3228 79.6179 12.0301Z" stroke="black" stroke-width="6" stroke-linecap="round" stroke-linejoin="round"/>
<path d="M39.405 35.0764C30.8216 47.9514 22.2383 50.0973 9.36328 52.2431L43.6966 95.1598C52.28 90.8681 69.4466 73.7014 69.4466 65.1181" stroke="black" stroke-width="6" stroke-linecap="round" stroke-linejoin="round"/>
<path d="M63.0104 75.8472L20.0938 65.118" stroke="black" stroke-width="6" stroke-linecap="round" stroke-linejoin="round"/>
</svg>
