<svg width="103" height="103" viewBox="0 0 103 103" fill="none" xmlns="http://www.w3.org/2000/svg">
<path d="M52.4434 8.58337H50.5551C48.2787 8.58337 46.0955 9.48769 44.4858 11.0974C42.8761 12.7071 41.9718 14.8903 41.9718 17.1667V17.9392C41.9702 19.4444 41.5729 20.9227 40.8196 22.2259C40.0664 23.529 38.9836 24.6112 37.6801 25.3638L35.8347 26.4367C34.5299 27.1901 33.0497 27.5867 31.543 27.5867C30.0363 27.5867 28.5562 27.1901 27.2514 26.4367L26.6076 26.0934C24.638 24.9572 22.2981 24.649 20.1015 25.2364C17.9048 25.8237 16.031 27.2587 14.8914 29.2263L13.9472 30.8571C12.811 32.8267 12.5028 35.1667 13.0902 37.3633C13.6776 39.5599 15.1125 41.4337 17.0801 42.5734L17.7239 43.0025C19.0211 43.7515 20.0998 44.8269 20.8527 46.1219C21.6056 47.4168 22.0065 48.8863 22.0155 50.3842V52.573C22.0215 54.0854 21.6278 55.5726 20.8741 56.884C20.1205 58.1953 19.0337 59.2842 17.7239 60.0405L17.0801 60.4267C15.1125 61.5664 13.6776 63.4402 13.0902 65.6368C12.5028 67.8334 12.811 70.1734 13.9472 72.143L14.8914 73.7738C16.031 75.7414 17.9048 77.1763 20.1015 77.7637C22.2981 78.3511 24.638 78.0429 26.6076 76.9067L27.2514 76.5634C28.5562 75.81 30.0363 75.4134 31.543 75.4134C33.0497 75.4134 34.5299 75.81 35.8347 76.5634L37.6801 77.6363C38.9836 78.3889 40.0664 79.4711 40.8196 80.7742C41.5729 82.0774 41.9702 83.5557 41.9718 85.0609V85.8334C41.9718 88.1098 42.8761 90.293 44.4858 91.9027C46.0955 93.5124 48.2787 94.4167 50.5551 94.4167H52.4434C54.7199 94.4167 56.9031 93.5124 58.5128 91.9027C60.1225 90.293 61.0268 88.1098 61.0268 85.8334V85.0609C61.0283 83.5557 61.4257 82.0774 62.1789 80.7742C62.9322 79.4711 64.0149 78.3889 65.3184 77.6363L67.1639 76.5634C68.4687 75.81 69.9488 75.4134 71.4555 75.4134C72.9622 75.4134 74.4424 75.81 75.7472 76.5634L76.3909 76.9067C78.3605 78.0429 80.7005 78.3511 82.8971 77.7637C85.0937 77.1763 86.9675 75.7414 88.1072 73.7738L89.0514 72.1C90.1875 70.1304 90.4957 67.7905 89.9084 65.5939C89.321 63.3973 87.886 61.5235 85.9184 60.3838L85.2747 60.0405C83.9648 59.2842 82.8781 58.1953 82.1244 56.884C81.3708 55.5726 80.977 54.0854 80.983 52.573V50.4271C80.977 48.9147 81.3708 47.4275 82.1244 46.1161C82.8781 44.8048 83.9648 43.7159 85.2747 42.9596L85.9184 42.5734C87.886 41.4337 89.321 39.5599 89.9084 37.3633C90.4957 35.1667 90.1875 32.8267 89.0514 30.8571L88.1072 29.2263C86.9675 27.2587 85.0937 25.8237 82.8971 25.2364C80.7005 24.649 78.3605 24.9572 76.3909 26.0934L75.7472 26.4367C74.4424 27.1901 72.9622 27.5867 71.4555 27.5867C69.9488 27.5867 68.4687 27.1901 67.1639 26.4367L65.3184 25.3638C64.0149 24.6112 62.9322 23.529 62.1789 22.2259C61.4257 20.9227 61.0283 19.4444 61.0268 17.9392V17.1667C61.0268 14.8903 60.1225 12.7071 58.5128 11.0974C56.9031 9.48769 54.7199 8.58337 52.4434 8.58337Z" stroke="black" stroke-width="6" stroke-linecap="round" stroke-linejoin="round"/>
<path d="M51.5 64.375C58.6107 64.375 64.375 58.6107 64.375 51.5C64.375 44.3893 58.6107 38.625 51.5 38.625C44.3893 38.625 38.625 44.3893 38.625 51.5C38.625 58.6107 44.3893 64.375 51.5 64.375Z" stroke="black" stroke-width="6" stroke-linecap="round" stroke-linejoin="round"/>
</svg>
