<svg width="103" height="104" viewBox="0 0 103 104" fill="none" xmlns="http://www.w3.org/2000/svg">
<path d="M68.6667 90.125V81.5417C68.6667 76.9888 66.858 72.6224 63.6387 69.403C60.4193 66.1836 56.0529 64.375 51.5 64.375H25.75C21.1971 64.375 16.8307 66.1836 13.6113 69.403C10.392 72.6224 8.58334 76.9888 8.58334 81.5417V90.125" stroke="black" stroke-width="6" stroke-linecap="round" stroke-linejoin="round"/>
<path d="M38.625 47.2083C48.1059 47.2083 55.7917 39.5226 55.7917 30.0417C55.7917 20.5608 48.1059 12.875 38.625 12.875C29.1441 12.875 21.4583 20.5608 21.4583 30.0417C21.4583 39.5226 29.1441 47.2083 38.625 47.2083Z" stroke="black" stroke-width="6" stroke-linecap="round" stroke-linejoin="round"/>
<path d="M81.5417 34.3333V60.0833" stroke="black" stroke-width="6" stroke-linecap="round" stroke-linejoin="round"/>
<path d="M94.4167 47.2083H68.6667" stroke="black" stroke-width="6" stroke-linecap="round" stroke-linejoin="round"/>
</svg>
