<svg width="103" height="103" viewBox="0 0 103 103" fill="none" xmlns="http://www.w3.org/2000/svg">
<path d="M68.6666 90.125V81.5417C68.6666 76.9888 66.858 72.6224 63.6386 69.403C60.4193 66.1836 56.0529 64.375 51.5 64.375H25.75C21.1971 64.375 16.8307 66.1836 13.6113 69.403C10.3919 72.6224 8.58331 76.9888 8.58331 81.5417V90.125" stroke="black" stroke-width="6" stroke-linecap="round" stroke-linejoin="round"/>
<path d="M38.625 47.2083C48.1059 47.2083 55.7916 39.5226 55.7916 30.0417C55.7916 20.5608 48.1059 12.875 38.625 12.875C29.1441 12.875 21.4583 20.5608 21.4583 30.0417C21.4583 39.5226 29.1441 47.2083 38.625 47.2083Z" stroke="black" stroke-width="6" stroke-linecap="round" stroke-linejoin="round"/>
<path d="M81.5416 55.7917C86.2821 55.7917 90.125 51.9488 90.125 47.2083C90.125 42.4679 86.2821 38.625 81.5416 38.625C76.8012 38.625 72.9583 42.4679 72.9583 47.2083C72.9583 51.9488 76.8012 55.7917 81.5416 55.7917Z" stroke="black" stroke-width="6" stroke-linecap="round" stroke-linejoin="round"/>
<path d="M81.5417 34.3333V38.6249" stroke="black" stroke-width="6" stroke-linecap="round" stroke-linejoin="round"/>
<path d="M81.5417 55.7917V60.0834" stroke="black" stroke-width="6" stroke-linecap="round" stroke-linejoin="round"/>
<path d="M92.7 40.7708L88.9662 42.9166" stroke="black" stroke-width="6" stroke-linecap="round" stroke-linejoin="round"/>
<path d="M74.1171 51.5L70.3833 53.6458" stroke="black" stroke-width="6" stroke-linecap="round" stroke-linejoin="round"/>
<path d="M92.7 53.6458L88.9662 51.5" stroke="black" stroke-width="6" stroke-linecap="round" stroke-linejoin="round"/>
<path d="M74.1171 42.9166L70.3833 40.7708" stroke="black" stroke-width="6" stroke-linecap="round" stroke-linejoin="round"/>
</svg>
