<svg width="78" height="13" viewBox="0 0 78 13" fill="none" xmlns="http://www.w3.org/2000/svg">
<path d="M3.93945 10L1.0625 2.41797H1.01562C1.03125 2.57812 1.04492 2.77344 1.05664 3.00391C1.06836 3.23438 1.07812 3.48633 1.08594 3.75977C1.09375 4.0293 1.09766 4.30469 1.09766 4.58594V10H0.171875V1.43359H1.64844L4.36133 8.55859H4.40234L7.15625 1.43359H8.62109V10H7.63672V4.51562C7.63672 4.26172 7.64062 4.00781 7.64844 3.75391C7.65625 3.49609 7.66602 3.25391 7.67773 3.02734C7.68945 2.79688 7.70117 2.59766 7.71289 2.42969H7.66602L4.75391 10H3.93945ZM9.80469 3.57812H10.8477L12.2656 7.30469C12.3477 7.52344 12.4238 7.73438 12.4941 7.9375C12.5645 8.13672 12.627 8.32812 12.6816 8.51172C12.7363 8.69531 12.7793 8.87305 12.8105 9.04492H12.8516C12.9062 8.84961 12.9844 8.59375 13.0859 8.27734C13.1875 7.95703 13.2969 7.63086 13.4141 7.29883L14.7559 3.57812H15.8047L13.0098 10.9434C12.8613 11.3379 12.6875 11.6816 12.4883 11.9746C12.293 12.2676 12.0547 12.4922 11.7734 12.6484C11.4922 12.8086 11.1523 12.8887 10.7539 12.8887C10.5703 12.8887 10.4082 12.877 10.2676 12.8535C10.127 12.834 10.0059 12.8105 9.9043 12.7832V12.0039C9.99023 12.0234 10.0938 12.041 10.2148 12.0566C10.3398 12.0723 10.4688 12.0801 10.6016 12.0801C10.8438 12.0801 11.0527 12.0332 11.2285 11.9395C11.4082 11.8496 11.5625 11.7168 11.6914 11.541C11.8203 11.3652 11.9316 11.1562 12.0254 10.9141L12.377 10.0117L9.80469 3.57812ZM20.5098 10L18.4473 3.2793H18.3945C18.4023 3.43945 18.4141 3.68164 18.4297 4.00586C18.4492 4.32617 18.4668 4.66797 18.4824 5.03125C18.498 5.39453 18.5059 5.72266 18.5059 6.01562V10H16.8828V1.43359H19.3555L21.3828 7.98438H21.418L23.5684 1.43359H26.041V10H24.3477V5.94531C24.3477 5.67578 24.3516 5.36523 24.3594 5.01367C24.3711 4.66211 24.3848 4.32812 24.4004 4.01172C24.416 3.69141 24.4277 3.45117 24.4355 3.29102H24.3828L22.1738 10H20.5098ZM29.8496 3.44922V10H28.0625V3.44922H29.8496ZM28.959 0.882812C29.2246 0.882812 29.4531 0.945313 29.6445 1.07031C29.8359 1.19141 29.9316 1.41992 29.9316 1.75586C29.9316 2.08789 29.8359 2.31836 29.6445 2.44727C29.4531 2.57227 29.2246 2.63477 28.959 2.63477C28.6895 2.63477 28.459 2.57227 28.2676 2.44727C28.0801 2.31836 27.9863 2.08789 27.9863 1.75586C27.9863 1.41992 28.0801 1.19141 28.2676 1.07031C28.459 0.945313 28.6895 0.882812 28.959 0.882812ZM35.4512 3.32617C36.1504 3.32617 36.7129 3.51758 37.1387 3.90039C37.5645 4.2793 37.7773 4.88867 37.7773 5.72852V10H35.9902V6.17383C35.9902 5.70508 35.9043 5.35156 35.7324 5.11328C35.5645 4.875 35.2988 4.75586 34.9355 4.75586C34.3887 4.75586 34.0156 4.94141 33.8164 5.3125C33.6172 5.68359 33.5176 6.21875 33.5176 6.91797V10H31.7305V3.44922H33.0957L33.3359 4.28711H33.4355C33.5762 4.06055 33.75 3.87695 33.957 3.73633C34.168 3.5957 34.4004 3.49219 34.6543 3.42578C34.9121 3.35938 35.1777 3.32617 35.4512 3.32617ZM41.4043 3.44922V10H39.6172V3.44922H41.4043ZM40.5137 0.882812C40.7793 0.882812 41.0078 0.945313 41.1992 1.07031C41.3906 1.19141 41.4863 1.41992 41.4863 1.75586C41.4863 2.08789 41.3906 2.31836 41.1992 2.44727C41.0078 2.57227 40.7793 2.63477 40.5137 2.63477C40.2441 2.63477 40.0137 2.57227 39.8223 2.44727C39.6348 2.31836 39.541 2.08789 39.541 1.75586C39.541 1.41992 39.6348 1.19141 39.8223 1.07031C40.0137 0.945313 40.2441 0.882812 40.5137 0.882812ZM50.9785 3.32617C51.7207 3.32617 52.2812 3.51758 52.6602 3.90039C53.043 4.2793 53.2344 4.88867 53.2344 5.72852V10H51.4414V6.17383C51.4414 5.70508 51.3613 5.35156 51.2012 5.11328C51.041 4.875 50.793 4.75586 50.457 4.75586C49.9844 4.75586 49.6484 4.92578 49.4492 5.26562C49.25 5.60156 49.1504 6.08398 49.1504 6.71289V10H47.3633V6.17383C47.3633 5.86133 47.3281 5.59961 47.2578 5.38867C47.1875 5.17773 47.0801 5.01953 46.9355 4.91406C46.791 4.80859 46.6055 4.75586 46.3789 4.75586C46.0469 4.75586 45.7852 4.83984 45.5938 5.00781C45.4062 5.17188 45.2715 5.41602 45.1895 5.74023C45.1113 6.06055 45.0723 6.45312 45.0723 6.91797V10H43.2852V3.44922H44.6504L44.8906 4.28711H44.9902C45.123 4.06055 45.2891 3.87695 45.4883 3.73633C45.6914 3.5957 45.9141 3.49219 46.1562 3.42578C46.3984 3.35938 46.6445 3.32617 46.8945 3.32617C47.375 3.32617 47.7812 3.4043 48.1133 3.56055C48.4492 3.7168 48.707 3.95898 48.8867 4.28711H49.0449C49.2402 3.95117 49.5156 3.70703 49.8711 3.55469C50.2305 3.40234 50.5996 3.32617 50.9785 3.32617ZM57.7578 3.31445C58.6367 3.31445 59.3105 3.50586 59.7793 3.88867C60.248 4.27148 60.4824 4.85352 60.4824 5.63477V10H59.2344L58.8887 9.10938H58.8418C58.6543 9.34375 58.4629 9.53516 58.2676 9.68359C58.0723 9.83203 57.8477 9.94141 57.5938 10.0117C57.3398 10.082 57.0312 10.1172 56.668 10.1172C56.2812 10.1172 55.9336 10.043 55.625 9.89453C55.3203 9.74609 55.0801 9.51953 54.9043 9.21484C54.7285 8.90625 54.6406 8.51562 54.6406 8.04297C54.6406 7.34766 54.8848 6.83594 55.373 6.50781C55.8613 6.17578 56.5938 5.99219 57.5703 5.95703L58.707 5.92188V5.63477C58.707 5.29102 58.6172 5.03906 58.4375 4.87891C58.2578 4.71875 58.0078 4.63867 57.6875 4.63867C57.3711 4.63867 57.0605 4.68359 56.7559 4.77344C56.4512 4.86328 56.1465 4.97656 55.8418 5.11328L55.25 3.90625C55.5977 3.72266 55.9863 3.57812 56.416 3.47266C56.8496 3.36719 57.2969 3.31445 57.7578 3.31445ZM58.707 6.96484L58.0156 6.98828C57.4375 7.00391 57.0352 7.10742 56.8086 7.29883C56.5859 7.49023 56.4746 7.74219 56.4746 8.05469C56.4746 8.32812 56.5547 8.52344 56.7148 8.64062C56.875 8.75391 57.084 8.81055 57.3418 8.81055C57.7246 8.81055 58.0469 8.69727 58.3086 8.4707C58.5742 8.24414 58.707 7.92188 58.707 7.50391V6.96484ZM63.3945 10H62.416V0.882812H63.3945V10ZM66.4238 3.57812V10H65.4512V3.57812H66.4238ZM65.9492 1.17578C66.1094 1.17578 66.2461 1.22852 66.3594 1.33398C66.4766 1.43555 66.5352 1.5957 66.5352 1.81445C66.5352 2.0293 66.4766 2.18945 66.3594 2.29492C66.2461 2.40039 66.1094 2.45312 65.9492 2.45312C65.7812 2.45312 65.6406 2.40039 65.5273 2.29492C65.418 2.18945 65.3633 2.0293 65.3633 1.81445C65.3633 1.5957 65.418 1.43555 65.5273 1.33398C65.6406 1.22852 65.7812 1.17578 65.9492 1.17578ZM72.6406 8.24219C72.6406 8.65234 72.5371 8.99805 72.3301 9.2793C72.127 9.55664 71.834 9.76562 71.4512 9.90625C71.0723 10.0469 70.6191 10.1172 70.0918 10.1172C69.6426 10.1172 69.2539 10.082 68.9258 10.0117C68.5977 9.94141 68.3105 9.8418 68.0645 9.71289V8.81641C68.3262 8.94531 68.6387 9.0625 69.002 9.16797C69.3652 9.27344 69.7363 9.32617 70.1152 9.32617C70.6699 9.32617 71.0723 9.23633 71.3223 9.05664C71.5723 8.87695 71.6973 8.63281 71.6973 8.32422C71.6973 8.14844 71.6465 7.99414 71.5449 7.86133C71.4473 7.72461 71.2812 7.59375 71.0469 7.46875C70.8125 7.33984 70.4883 7.19922 70.0742 7.04688C69.6641 6.89062 69.3086 6.73633 69.0078 6.58398C68.7109 6.42773 68.4805 6.23828 68.3164 6.01562C68.1562 5.79297 68.0762 5.50391 68.0762 5.14844C68.0762 4.60547 68.2949 4.18945 68.7324 3.90039C69.1738 3.60742 69.752 3.46094 70.4668 3.46094C70.8535 3.46094 71.2148 3.5 71.5508 3.57812C71.8906 3.65234 72.207 3.75391 72.5 3.88281L72.1719 4.66211C71.9062 4.54883 71.623 4.45312 71.3223 4.375C71.0215 4.29688 70.7148 4.25781 70.4023 4.25781C69.9531 4.25781 69.6074 4.33203 69.3652 4.48047C69.127 4.62891 69.0078 4.83203 69.0078 5.08984C69.0078 5.28906 69.0625 5.45312 69.1719 5.58203C69.2852 5.71094 69.4648 5.83203 69.7109 5.94531C69.957 6.05859 70.2812 6.19141 70.6836 6.34375C71.0859 6.49219 71.4336 6.64648 71.7266 6.80664C72.0195 6.96289 72.2441 7.1543 72.4004 7.38086C72.5605 7.60352 72.6406 7.89062 72.6406 8.24219ZM76.2793 9.32031C76.4395 9.32031 76.6035 9.30664 76.7715 9.2793C76.9395 9.25195 77.0762 9.21875 77.1816 9.17969V9.93555C77.0684 9.98633 76.9102 10.0293 76.707 10.0645C76.5078 10.0996 76.3125 10.1172 76.1211 10.1172C75.7812 10.1172 75.4727 10.0586 75.1953 9.94141C74.918 9.82031 74.6953 9.61719 74.5273 9.33203C74.3633 9.04688 74.2812 8.65234 74.2812 8.14844V4.33984H73.3672V3.86523L74.2871 3.48438L74.6738 2.08984H75.2598V3.57812H77.1406V4.33984H75.2598V8.11914C75.2598 8.52148 75.3516 8.82227 75.5352 9.02148C75.7227 9.2207 75.9707 9.32031 76.2793 9.32031Z" fill="black"/>
</svg>
